<?xml version="1.0" encoding="UTF-8" standalone="no"?>
<svg
   viewBox="80 80 240 240"
   role="img"
   aria-labelledby="title desc"
   focusable="false"
   version="1.1"
   id="svg19"
   sodipodi:docname="willem-vanhulle-logo.svg"
   inkscape:version="1.4.2 (ebf0e940d0, 2025-05-08)"
   xmlns:inkscape="http://www.inkscape.org/namespaces/inkscape"
   xmlns:sodipodi="http://sodipodi.sourceforge.net/DTD/sodipodi-0.dtd"
   xmlns="http://www.w3.org/2000/svg"
   xmlns:svg="http://www.w3.org/2000/svg">
  <sodipodi:namedview
     id="namedview19"
     pagecolor="#ffffff"
     bordercolor="#000000"
     borderopacity="0.25"
     inkscape:showpageshadow="2"
     inkscape:pageopacity="0.0"
     inkscape:pagecheckerboard="0"
     inkscape:deskcolor="#d1d1d1"
     inkscape:zoom="4.8416667"
     inkscape:cx="119.89673"
     inkscape:cy="120"
     inkscape:window-width="2560"
     inkscape:window-height="1370"
     inkscape:window-x="0"
     inkscape:window-y="0"
     inkscape:window-maximized="1"
     inkscape:current-layer="g19" />
  <title
     id="title">Willem Vanhulle — Software engineer</title>
  <desc
     id="desc">Minimal freelance logo: a stable, asymmetric network inside a mint ring, framed by braces. Message: technically strong and reliable.</desc>
  <defs
     id="defs5">
    <!-- Define gradients with improved contrast -->
    <linearGradient
       id="navyGrad"
       x1="0%"
       y1="0%"
       x2="100%"
       y2="100%">
      <stop
         offset="0%"
         style="stop-color:#030038;stop-opacity:1"
         id="stop1" />
      <stop
         offset="100%"
         style="stop-color:#05004E;stop-opacity:1"
         id="stop2" />
    </linearGradient>
    <linearGradient
       id="mintGrad"
       x1="0%"
       y1="0%"
       x2="100%"
       y2="100%">
      <stop
         offset="0%"
         style="stop-color:#7dd4b0;stop-opacity:1"
         id="stop3" />
      <stop
         offset="100%"
         style="stop-color:#5cc49a;stop-opacity:1"
         id="stop4" />
    </linearGradient>
    <!-- Shadow filter -->
    <filter
       id="shadow"
       x="-0.066785713"
       y="-0.066785713"
       width="1.1335714"
       height="1.1478571">
      <feGaussianBlur
         in="SourceAlpha"
         stdDeviation="3"
         id="feGaussianBlur4" />
      <feOffset
         dx="0"
         dy="2"
         result="offsetblur"
         id="feOffset4" />
      <feComponentTransfer
         id="feComponentTransfer4">
        <feFuncA
           type="linear"
           slope="0.3"
           id="feFuncA4" />
      </feComponentTransfer>
      <feMerge
         id="feMerge5">
        <feMergeNode
           id="feMergeNode4" />
        <feMergeNode
           in="SourceGraphic"
           id="feMergeNode5" />
      </feMerge>
    </filter>
  </defs>
  <!-- Main container -->
  <g
     transform="translate(200, 200)"
     id="g19">
    <!-- Main circle -->
    <g
       filter="url(#shadow)"
       id="g18"
       style="stroke:#447821;fill:#ffffff">
      <!-- Central circle with stronger mint accent -->
      <circle
         cx="0"
         cy="0"
         r="70"
         fill="url(#mintGrad)"
         id="circle5"
         style="fill:#ffffff;fill-opacity:1;stroke:#447821;stroke-opacity:1;stroke-width:4.29999981;stroke-dasharray:none" />
      <!-- Network graph inside (distributed systems) - stable triangular topology -->
      <g
         stroke="#030038"
         stroke-width="2.5"
         stroke-linecap="round"
         fill="#030038"
         id="g17"
         style="fill:#ffffff;stroke:#447821">
        <!-- Central node -->
        <circle
           cx="0"
           cy="0"
           r="9"
           id="circle7"
           style="fill:#447821;stroke:#447821" />
        <!-- Three primary connections (robust, non-collinear) -->
        <line
           x1="0"
           y1="0"
           x2="36"
           y2="-14"
           opacity="0.8"
           id="line7"
           style="fill:#ffffff;stroke:#447821" />
        <line
           x1="0"
           y1="0"
           x2="-22"
           y2="26"
           opacity="0.8"
           id="line8"
           style="fill:#ffffff;stroke:#447821" />
        <line
           x1="0"
           y1="0"
           x2="-10"
           y2="-34"
           opacity="0.8"
           id="line9"
           style="fill:#ffffff;stroke:#447821" />
        <!-- Triangle edges (thin peer links) -->
        <line
           x1="36"
           y1="-14"
           x2="-22"
           y2="26"
           opacity="0.3"
           stroke-width="1.5"
           id="line10"
           style="fill:#ffffff;stroke:#447821" />
        <line
           x1="-22"
           y1="26"
           x2="-10"
           y2="-34"
           opacity="0.3"
           stroke-width="1.5"
           id="line11"
           style="fill:#ffffff;stroke:#447821" />
        <line
           x1="-10"
           y1="-34"
           x2="36"
           y2="-14"
           opacity="0.3"
           stroke-width="1.5"
           id="line12"
           style="fill:#ffffff;stroke:#447821" />
        <!-- Outer nodes at triangle vertices -->
        <circle
           cx="36"
           cy="-14"
           r="6"
           id="circle12"
           style="fill:#447821;stroke:#447821" />
        <circle
           cx="-22"
           cy="26"
           r="6"
           id="circle13"
           style="fill:#447821;stroke:#447821" />
        <circle
           cx="-10"
           cy="-34"
           r="6"
           id="circle14"
           style="fill:#447821;stroke:#447821" />
        <!-- Mint health dots inside the outer nodes -->
        <circle
           cx="36"
           cy="-14"
           r="2"
           fill="#5cc49a"
           id="circle15"
           style="fill:#ffffff;stroke:#447821" />
        <circle
           cx="-22"
           cy="26"
           r="2"
           fill="#5cc49a"
           id="circle16"
           style="fill:#ffffff;stroke:#447821" />
        <circle
           cx="-10"
           cy="-34"
           r="2"
           fill="#5cc49a"
           id="circle17"
           style="fill:#ffffff;stroke:#447821" />
      </g>
    </g>
    <!-- Vector curly braces - perfectly symmetrical -->
    <!-- Left brace -->
    <path
       d="M -80,-40 Q -90,-40 -90,-30 L -90,-10 Q -90,0 -100,0 Q -90,0 -90,10 L -90,30 Q -90,40 -80,40"
       fill="none"
       stroke="#030038"
       stroke-width="5"
       stroke-linecap="round"
       opacity="0.85"
       id="path18"
       style="stroke:#447821;fill:#ffffff" />
    <!-- Right brace (perfectly mirrored) -->
    <path
       d="M 80,-40 Q 90,-40 90,-30 L 90,-10 Q 90,0 100,0 Q 90,0 90,10 L 90,30 Q 90,40 80,40"
       fill="none"
       stroke="#030038"
       stroke-width="5"
       stroke-linecap="round"
       opacity="0.85"
       id="path19"
       style="stroke:#447821;fill:#ffffff" />
    <path
       style="fill:#ffffff;fill-opacity:1;stroke:#ffffff;stroke-width:0.43043"
       d="m 112.25473,189.47333 c -8.81346,-0.9565 -18.253013,-3.95605 -25.971293,-8.25274 -20.018523,-11.1441 -33.432907,-31.32751 -35.777335,-53.83089 -0.40832,-3.91933 -0.40832,-10.86007 0,-14.7794 C 52.156138,96.772156 59.216097,82.045055 70.630575,70.630576 82.058551,59.202601 96.753431,52.158089 112.6103,50.506102 c 3.91963,-0.408352 10.86478,-0.408558 14.75108,-4.39e-4 15.92568,1.672434 30.58113,8.691882 42.0111,20.121856 9.94547,9.945465 16.40387,22.014955 19.18342,35.850081 1.61314,8.02934 1.69315,18.26999 0.20386,26.09305 -2.7175,14.27465 -9.215,26.60612 -19.39181,36.8033 -11.37452,11.39729 -26.09181,18.4491 -41.98752,20.11839 -3.75986,0.39484 -11.40089,0.38524 -15.1257,-0.019 z m 13.73494,-8.97952 c 4.70356,-0.42829 10.66558,-1.77918 15.00309,-3.39942 21.68091,-8.09875 36.73674,-27.26805 39.41774,-50.18722 0.40687,-3.47822 0.40687,-10.33612 0,-13.81434 -3.30058,-28.215795 -25.32766,-50.248165 -53.4914,-53.50424 -3.77219,-0.436112 -10.06601,-0.436112 -13.8382,0 -28.088698,3.247399 -50.234911,25.35575 -53.480475,53.38903 -0.422183,3.64658 -0.422183,10.39818 0,14.04476 2.972691,25.67636 21.958676,46.73321 47.180985,52.32715 6.28432,1.39377 12.44061,1.76052 19.20826,1.14428 z"
       id="path22"
       transform="translate(-120,-120)" />
    <path
       style="fill:#447821;fill-opacity:1;stroke:#447821;stroke-width:1.63000019;stroke-opacity:1;stroke-dasharray:none"
       d="m 198.36145,161.63855 c -0.79724,-0.79723 -0.9312,-1.76708 -0.38893,-2.81571 0.43771,-0.84645 1.17957,-1.15563 3.11472,-1.2981 3.15284,-0.23212 4.98284,-1.36508 5.92263,-3.66674 0.451,-1.10457 0.45959,-1.31288 0.57402,-13.92685 0.10202,-11.24447 0.15934,-12.95657 0.47026,-14.04475 0.5531,-1.93574 1.5177,-3.72498 2.61616,-4.85273 L 211.67714,120 l -1.00683,-1.03367 c -1.09961,-1.12893 -2.06487,-2.92042 -2.61467,-4.85273 -0.30826,-1.08341 -0.36869,-2.84952 -0.48057,-14.04475 -0.0834,-8.345065 -0.20604,-13.029297 -0.35209,-13.447978 -0.92267,-2.645099 -2.77759,-3.898378 -6.13574,-4.145614 -1.93515,-0.142471 -2.67701,-0.451651 -3.11472,-1.298101 -0.54227,-1.048626 -0.40831,-2.01848 0.38893,-2.815711 0.67218,-0.672183 0.76721,-0.702084 2.22031,-0.698651 4.7004,0.0111 8.69413,2.228778 10.42786,5.790482 1.27148,2.612098 1.31353,3.110473 1.31805,15.623641 0.002,6.337792 0.0939,11.939952 0.20811,12.730082 0.5277,3.65003 2.34054,5.38924 5.89782,5.65828 l 1.53198,0.11586 V 120 v 2.41886 l -1.53198,0.11586 c -3.55728,0.26904 -5.37012,2.00825 -5.89782,5.65828 -0.11434,0.79086 -0.20582,6.41256 -0.20811,12.78945 -0.004,10.68487 -0.0292,11.4765 -0.41612,12.98933 -0.57081,2.23188 -1.35033,3.69632 -2.71617,5.10277 -1.97175,2.03039 -5.20376,3.2546 -8.61362,3.26266 -1.4531,0.003 -1.54813,-0.0265 -2.22031,-0.69866 z"
       id="path23"
       transform="translate(-120,-120)" />
    <path
       style="fill:#ffffff;fill-opacity:1;stroke:#447821;stroke-width:0.43043"
       d="m 36.365993,162.02003 c -2.131425,-0.46222 -4.228366,-1.57283 -5.561376,-2.94548 -1.365841,-1.40645 -2.145353,-2.87089 -2.71617,-5.10277 -0.386916,-1.51283 -0.412276,-2.30446 -0.416118,-12.98933 -0.0023,-6.37689 -0.09377,-11.99859 -0.208106,-12.78945 -0.527702,-3.65003 -2.340546,-5.38924 -5.897823,-5.65828 l -1.531977,-0.11586 V 120 117.58114 l 1.531977,-0.11586 c 3.557277,-0.26904 5.370121,-2.00825 5.897823,-5.65828 0.114338,-0.79086 0.205813,-6.41256 0.208106,-12.789452 0.0038,-10.684873 0.0292,-11.476503 0.416118,-12.98933 0.570817,-2.231873 1.350329,-3.696314 2.71617,-5.102768 1.971758,-2.030387 5.203761,-3.2546 8.613627,-3.262655 1.453101,-0.0034 1.548128,0.02647 2.22031,0.698651 0.797232,0.797231 0.931196,1.767085 0.38893,2.815711 -0.437715,0.84645 -1.179575,1.15563 -3.11472,1.298101 -3.35815,0.247236 -5.213076,1.500515 -6.135749,4.145614 -0.146046,0.418681 -0.268685,5.102913 -0.352083,13.447978 -0.111883,11.19523 -0.172315,12.96134 -0.480575,14.04475 -0.547914,1.92569 -1.47495,3.64392 -2.597947,4.81518 L 28.319333,120 l 1.027077,1.07122 c 1.122997,1.17126 2.050033,2.88949 2.597947,4.81518 0.30826,1.08341 0.368692,2.84952 0.480575,14.04475 0.0834,8.34507 0.206037,13.0293 0.352083,13.44798 0.922673,2.6451 2.777599,3.89838 6.135749,4.14561 1.935145,0.14247 2.677005,0.45165 3.11472,1.2981 0.542266,1.04863 0.408302,2.01848 -0.38893,2.81571 -0.683304,0.68331 -0.745952,0.7018 -2.32358,0.68582 -0.891738,-0.009 -2.21878,-0.14598 -2.948981,-0.30434 z"
       id="path24"
       transform="translate(-120,-120)" />
    <path
       style="fill:#447821;fill-opacity:1;stroke:#447821;stroke-width:1.73;stroke-dasharray:none;stroke-opacity:1"
       d="m 35.834768,161.54156 c -2.915886,-0.83936 -5.45299,-2.8684 -6.588855,-5.26942 -1.087558,-2.29891 -1.136504,-2.88216 -1.258639,-14.99847 -0.06241,-6.19105 -0.158311,-11.88149 -0.213121,-12.64543 -0.120799,-1.68367 -0.699044,-3.30557 -1.543538,-4.3294 -0.73685,-0.89332 -2.403993,-1.75795 -3.717706,-1.9281 -0.511188,-0.0662 -1.231498,-0.1662 -1.600689,-0.22221 l -0.671256,-0.10184 V 120 117.95331 l 0.671256,-0.10184 c 0.369191,-0.056 1.085553,-0.15735 1.591915,-0.22519 2.730337,-0.36582 4.400729,-1.97651 5.039945,-4.8598 0.229534,-1.03535 0.325537,-4.04692 0.424533,-13.317255 0.101826,-9.535465 0.190646,-12.245803 0.435373,-13.285459 1.177098,-5.000566 5.266972,-8.078374 10.748118,-8.088424 1.40752,-0.0026 1.736876,0.0639 2.129693,0.429862 0.743653,0.692817 0.890947,1.321389 0.524344,2.237618 -0.386274,0.965393 -0.843637,1.182539 -3.079807,1.462224 -3.175957,0.397228 -4.78155,1.328616 -5.822367,3.377497 l -0.539069,1.061175 -0.256734,13.425132 c -0.238848,12.48985 -0.285277,13.50496 -0.666444,14.57103 -0.676347,1.89166 -1.279089,2.9042 -2.475403,4.15841 l -1.136906,1.19193 1.166775,1.26026 c 1.236095,1.33513 1.780823,2.25053 2.445534,4.10964 0.381167,1.06607 0.427596,2.08118 0.666444,14.57103 l 0.256734,13.42513 0.539069,1.06118 c 1.040817,2.04888 2.64641,2.98027 5.822367,3.37749 2.460403,0.30774 2.836374,0.52715 3.280125,1.91424 0.155783,0.48696 -0.156395,1.25618 -0.724662,1.78561 -0.403875,0.37626 -0.709578,0.43099 -2.336233,0.4182 -1.113537,-0.009 -2.373472,-0.1592 -3.110796,-0.37144 z"
       id="path27"
       transform="translate(-120,-120)" />
  </g>
</svg>
